<?xml version="1.0" encoding="UTF-8" standalone="no"?>
<!-- Created with Inkscape (http://www.inkscape.org/) -->

<svg
   width="158.32112mm"
   height="26.425005mm"
   viewBox="0 0 158.32112 26.425005"
   version="1.1"
   id="svg1"
   xmlns="http://www.w3.org/2000/svg"
   xmlns:svg="http://www.w3.org/2000/svg">
  <defs
     id="defs1" />
  <path
     id="path8"
     style="font-size:27.6979px;font-family:moonhouse;-inkscape-font-specification:moonhouse;fill:#000000;stroke-width:46.1631"
     d="m 140.29066,0.01007228 c -0.40624,-0.03693 -0.79392,0.0276 -1.16323,0.193787 -0.35084,0.166187 -0.64621,0.424823 -0.88626,0.775663 -0.24005,0.35084002 -0.36014,0.75689902 -0.36018,1.21853002 l -0.001,13.0085087 h 3.29592 V 4.1276503 l 13.5444,10.5988517 c 0.35084,0.29545 0.73853,0.452789 1.16323,0.471289 0.42471,0.03693 0.8124,-0.03704 1.16324,-0.221692 0.3693,-0.16619 0.6741,-0.415388 0.91415,-0.747758 0.24005,-0.35084 0.36019,-0.757417 0.36019,-1.219047 V 0.02815928 h -3.29595 V 10.738115 L 141.4539,0.48084528 c -0.35084,-0.295443 -0.73854,-0.452303 -1.16324,-0.470773 z M 95.114608,7.7227218e-4 c -0.75707,0 -1.46794,0.14742200782 -2.13269,0.44286700782 -0.66475,0.276979 -1.24655,0.66467502 -1.74511,1.16323702 -0.4801,0.498563 -0.86779,1.080364 -1.16323,1.745113 -0.27698,0.66475 -0.41548,1.37561 -0.41548,2.132686 v 4.26589 c 0,0.7570807 0.1385,1.4679467 0.41548,2.1326867 0.29544,0.66476 0.68313,1.246036 1.16323,1.744596 0.49856,0.4801 1.08036,0.867797 1.74511,1.163237 0.66475,0.27698 1.37562,0.415478 2.13269,0.415478 h 13.627082 l 4.12688,-5.4559977 c 0.27697,-0.3693 0.43439,-0.775877 0.47129,-1.219047 0.0369,-0.44316 -0.0281,-0.849221 -0.19431,-1.218531 -0.16619,-0.38776 -0.4243,-0.710929 -0.77514,-0.969449 -0.33238,-0.258509 -0.73896,-0.38809 -1.21905,-0.38809 h -8.08788 c -2.67746,-0.0185 -5.364042,-0.02739 -8.059972,-0.02739 v 3.351217 c 2.36355,0 4.69968,0.0094 7.007842,0.0279 h 7.03523 l -1.9389,2.5760707 H 95.114608 c -0.59089,0 -1.09872,-0.203542 -1.52342,-0.609782 -0.40623,-0.4247 -0.60927,-0.932014 -0.60927,-1.5229047 v -4.26589 c 0,-0.590889 0.20304,-1.08928 0.60927,-1.495516 0.4247,-0.424701 0.93253,-0.63717 1.52342,-0.63717 H 112.1761 V 7.6627218e-4 Z m 24.650692,0 c -0.75707,0 -1.46793,0.14742200782 -2.13268,0.44286700782 -0.66475,0.276979 -1.24603,0.66467502 -1.7446,1.16323702 -0.48009,0.498563 -0.8683,1.080364 -1.16375,1.745113 -0.27698,0.66475 -0.41548,1.37561 -0.41548,2.132686 v 4.26589 c 0,0.7570707 0.1385,1.4679367 0.41548,2.1326867 0.29545,0.66475 0.68366,1.246036 1.16375,1.744596 0.49857,0.4801 1.07985,0.867797 1.7446,1.163237 0.66475,0.27698 1.37561,0.415478 2.13268,0.415478 h 17.06201 V 11.883252 H 119.7653 c -0.59089,0 -1.09871,-0.203542 -1.52342,-0.609782 -0.40623,-0.4247 -0.60926,-0.932014 -0.60926,-1.5229047 v -0.471289 h 18.16995 v -3.351217 h -18.16995 v -0.443384 c 0,-0.590889 0.20303,-1.08928 0.60926,-1.495516 0.42471,-0.424701 0.93253,-0.63717 1.52342,-0.63717 h 17.06201 l -1e-5,-3.352003027822 z m -66.142215,1.3e-5 V 9.7505633 c 0,0.7570707 0.138499,1.4679367 0.415478,2.1326867 0.295445,0.66475 0.68314,1.246036 1.163237,1.744596 0.498562,0.4801 1.080363,0.867797 1.745113,1.163237 0.664749,0.27698 1.37561,0.415478 2.132686,0.415478 h 8.420158 V 11.88325 h -8.420158 c -0.590889,0 -1.09872,-0.203552 -1.523421,-0.609782 -0.406236,-0.4247 -0.609265,-0.932014 -0.609265,-1.5229047 v -2.133203 h 8.835636 V 4.2940483 H 56.946913 V 7.8527218e-4 Z M 5.4559989,4.2940483 c -0.757076,0 -1.467937,0.147423 -2.132686,0.442867 -0.66475,0.276979 -1.246035,0.664675 -1.744597,1.163237 -0.480097,0.480092 -0.86779201,1.052458 -1.16323601,1.717208 C 0.13850089,8.2821103 8.8453004e-7,8.9934833 8.8453004e-7,9.7505633 V 26.298908 H 3.3233129 V 9.7505633 c 0,-0.59089 0.203547,-1.089803 0.609782,-1.496033 0.424701,-0.4247 0.932015,-0.63717 1.522904,-0.63717 H 14.01465 c 0.590889,0 1.089797,0.21247 1.496033,0.63717 0.424701,0.40623 0.63717,0.905143 0.63717,1.496033 0,0.5908907 -0.212469,1.0982047 -0.63717,1.5229047 -0.406236,0.40623 -0.905144,0.609782 -1.496033,0.609782 H 5.3180229 v 3.323311 H 14.01465 c 0.757076,0 1.468453,-0.138498 2.133203,-0.415478 0.664749,-0.29544 1.237111,-0.683137 1.717208,-1.163237 0.498563,-0.49856 0.886257,-1.079846 1.163236,-1.744596 0.295445,-0.66475 0.442867,-1.375616 0.442867,-2.1326867 0,-0.75708 -0.147422,-1.468453 -0.442867,-2.133203 -0.276979,-0.66475 -0.664673,-1.237116 -1.163236,-1.717208 -0.480097,-0.498562 -1.052459,-0.886258 -1.717208,-1.163237 -0.66475,-0.295444 -1.376127,-0.442867 -2.133203,-0.442867 z m 20.1920491,0 c -0.757076,0 -1.467937,0.147423 -2.132686,0.442867 -0.664749,0.276979 -1.24655,0.664675 -1.745113,1.163237 -0.480097,0.480092 -0.867792,1.052458 -1.163237,1.717208 -0.276979,0.66475 -0.415478,1.376123 -0.415478,2.133203 v 5.4559977 h 3.323828 V 9.7505633 c 0,-0.59089 0.203029,-1.089803 0.609265,-1.496033 0.424701,-0.4247 0.932533,-0.63717 1.523421,-0.63717 h 5.955192 v -3.323312 z m 12.104171,0 c -0.757076,0 -1.467937,0.147423 -2.132686,0.442867 -0.66475,0.276979 -1.246551,0.664675 -1.745113,1.163237 -0.480097,0.480092 -0.867793,1.052458 -1.163237,1.717208 -0.276979,0.66475 -0.415478,1.376123 -0.415478,2.133203 0,0.7570707 0.138499,1.4679367 0.415478,2.1326867 0.295444,0.66475 0.68314,1.246036 1.163237,1.744596 0.498562,0.4801 1.080363,0.867797 1.745113,1.163237 0.664749,0.27698 1.37561,0.415478 2.132686,0.415478 h 9.167916 c 0.757076,0 1.467936,-0.138498 2.132686,-0.415478 0.664749,-0.29544 1.237111,-0.683137 1.717208,-1.163237 0.498563,-0.49856 0.886258,-1.079846 1.163237,-1.744596 0.295445,-0.66475 0.443383,-1.375616 0.443383,-2.1326867 0,-0.75708 -0.147938,-1.468453 -0.443383,-2.133203 -0.276979,-0.66475 -0.664674,-1.237116 -1.163237,-1.717208 -0.480097,-0.498562 -1.052459,-0.886258 -1.717208,-1.163237 -0.66475,-0.295444 -1.37561,-0.442867 -2.132686,-0.442867 z m 36.035009,0 c -0.75708,0 -1.468453,0.147423 -2.133202,0.442867 -0.664749,0.276979 -1.246034,0.664675 -1.744597,1.163237 -0.480097,0.480092 -0.867791,1.052458 -1.163236,1.717208 -0.276979,0.66475 -0.415479,1.376123 -0.415479,2.133203 0,0.7570707 0.1385,1.4679367 0.415479,2.1326867 0.295445,0.66475 0.683139,1.246036 1.163236,1.744596 0.498563,0.4801 1.079848,0.867797 1.744597,1.163237 0.664749,0.27698 1.376122,0.415478 2.133202,0.415478 h 9.16792 c 0.75707,0 1.46793,-0.138498 2.13268,-0.415478 0.66475,-0.29544 1.23712,-0.683137 1.71721,-1.163237 0.49857,-0.49856 0.88626,-1.079846 1.16324,-1.744596 0.29544,-0.66475 0.44338,-1.375616 0.44338,-2.1326867 0,-0.75708 -0.14794,-1.468453 -0.44338,-2.133203 -0.27698,-0.66475 -0.66467,-1.237116 -1.16324,-1.717208 -0.48009,-0.498562 -1.05246,-0.886258 -1.71721,-1.163237 -0.66475,-0.295444 -1.37561,-0.442867 -2.13268,-0.442867 z m -36.035009,3.323312 h 9.167916 c 0.590889,0 1.08928,0.21247 1.495516,0.63717 0.424701,0.40623 0.63717,0.905143 0.63717,1.496033 0,0.5908907 -0.212469,1.0982047 -0.63717,1.5229047 -0.406236,0.40623 -0.904627,0.609782 -1.495516,0.609782 h -9.167916 c -0.590889,0 -1.09872,-0.203552 -1.523421,-0.609782 -0.406235,-0.4247 -0.609265,-0.932014 -0.609265,-1.5229047 0,-0.59089 0.20303,-1.089803 0.609265,-1.496033 0.424701,-0.4247 0.932532,-0.63717 1.523421,-0.63717 z m 36.035009,0 h 9.16792 c 0.59089,0 1.08928,0.21247 1.49551,0.63717 0.4247,0.40623 0.63717,0.905143 0.63717,1.496033 0,0.5908907 -0.21247,1.0982047 -0.63717,1.5229047 -0.40623,0.40623 -0.90462,0.609782 -1.49551,0.609782 h -9.16792 c -0.59089,0 -1.098719,-0.203552 -1.52342,-0.609782 -0.406236,-0.4247 -0.609782,-0.932014 -0.609782,-1.5229047 0,-0.59089 0.203546,-1.089803 0.609782,-1.496033 0.424701,-0.4247 0.93253,-0.63717 1.52342,-0.63717 z M 49.021299,19.301919 c -1.725499,0 -2.965711,0.840615 -2.965711,1.933215 0,1.00856 0.916987,1.544135 1.779737,1.827795 l 1.212845,0.409795 c 0.795347,0.26264 1.361674,0.441414 1.361674,1.008724 0,0.5358 -0.539304,0.882116 -1.536857,0.882116 -0.808828,0 -1.657751,-0.314953 -2.291333,-0.777213 l -0.91674,0.829923 c 0.835788,0.64086 1.994923,1.008724 3.181202,1.008724 1.981628,0 3.167765,-0.924508 3.167765,-2.038118 0,-0.99805 -0.741225,-1.513145 -1.77922,-1.859835 l -1.199927,-0.388607 c -0.727945,-0.23113 -1.401981,-0.430549 -1.401981,-0.966349 0,-0.50428 0.552757,-0.809253 1.388546,-0.809253 0.754905,0 1.347916,0.220894 1.914095,0.588594 l 0.795817,-0.77773 c -0.687503,-0.5358 -1.685398,-0.871781 -2.709912,-0.871781 z m 61.214871,0 c -2.38604,0 -4.20595,1.334477 -4.20595,3.582727 0,2.27977 1.76578,3.540352 4.11138,3.540352 0.74142,0 1.41566,-0.136619 1.96836,-0.346749 l 0.0806,0.220659 h 0.80925 v -3.719153 h -3.07371 v 0.997872 h 1.67173 v 1.481563 c -0.2831,0.19961 -0.76832,0.304374 -1.2671,0.304374 -1.76594,0 -2.69648,-0.945071 -2.69648,-2.510441 0,-1.54436 1.0516,-2.490287 2.61534,-2.490287 0.82231,0 1.3075,0.231217 1.75235,0.567407 l 0.863,-0.756543 c -0.5527,-0.44126 -1.41554,-0.871781 -2.62878,-0.871781 z m 21.74389,0 c -2.29168,0 -3.88245,1.313287 -3.88245,3.530017 0,2.22723 1.59077,3.593062 3.88245,3.593062 2.30516,0 3.89589,-1.365832 3.89589,-3.593062 0,-2.21673 -1.59073,-3.530017 -3.89589,-3.530017 z M 5.3180229,19.428009 v 6.870899 h 1.563729 v -6.870899 z m 6.5649741,0 v 6.870899 h 1.496033 v -3.004985 c 0,-0.76693 -0.134653,-1.596922 -0.202055,-2.321822 h 0.05374 l 0.903304,1.460376 2.75022,3.866431 h 1.604037 v -6.870899 h -1.49655 v 2.983797 c 0,0.76693 0.134653,1.638603 0.202055,2.342493 h -0.05374 l -0.903304,-1.460376 -2.749703,-3.865914 z m 11.606527,0 v 6.870899 h 2.439644 c 2.615209,0 4.205945,-1.187212 4.205945,-3.466972 0,-2.26926 -1.590469,-3.403927 -4.28656,-3.403927 z m 11.148156,0 v 3.855579 c 0,2.25875 1.307916,3.14141 3.343466,3.14141 2.049029,0 3.329512,-0.88266 3.329512,-3.14141 v -3.855579 h -1.496549 v 3.950147 c 0,1.49184 -0.754526,1.985408 -1.832963,1.985408 -1.064956,0 -1.779737,-0.493568 -1.779737,-1.985408 v -3.950147 z m 20.975464,0 v 1.029395 h 2.548165 v 5.841504 h 1.563729 v -5.841504 h 2.547648 v -1.029395 z m 10.892359,0 v 6.870899 h 1.563729 v -2.689759 h 1.348238 l 1.900659,2.689759 h 1.752349 l -2.102715,-2.868042 c 1.051476,-0.28366 1.752345,-0.914148 1.752345,-1.964738 0,-1.53385 -1.402117,-2.038119 -3.235459,-2.038119 z m 10.838615,0 v 6.870899 h 1.56373 v -6.870899 z m 8.29045,0 -2.87166,6.870899 h 1.5906 l 0.68781,-1.859835 h 2.96571 l 0.6873,1.859835 h 1.64486 l -2.87166,-6.870899 z m 8.55968,0 v 6.870899 h 5.23069 v -1.029912 h -3.66696 v -5.840987 z m 23.523632,0 v 6.870899 h 1.56373 v -2.689759 h 1.34824 l 1.90066,2.689759 h 1.75235 l -2.10272,-2.868042 c 1.05147,-0.28366 1.75235,-0.914148 1.75235,-1.964738 0,-1.53385 -1.40212,-2.038119 -3.23546,-2.038119 z m 22.6472,0 v 3.855579 c 0,2.25875 1.30739,3.14141 3.34295,3.14141 2.04902,0 3.33003,-0.88266 3.33003,-3.14141 v -3.855579 h -1.49655 v 3.950147 c 0,1.49184 -0.75505,1.985408 -1.83348,1.985408 -1.06496,0 -1.77922,-0.493568 -1.77922,-1.985408 v -3.950147 z m 11.6334,0 v 6.870899 h 1.56373 v -2.521293 h 1.40198 c 1.90075,0 3.3569,-0.703905 3.3569,-2.227255 0,-1.59688 -1.4292,-2.122351 -3.3569,-2.122351 z m -20.01842,0.934827 c 1.38848,0 2.27842,0.93524 2.27842,2.4691 0,1.54436 -0.88994,2.531628 -2.27842,2.531628 -1.38849,0 -2.2779,-0.987268 -2.2779,-2.531628 0,-1.53386 0.88941,-2.4691 2.2779,-2.4691 z m -45.483012,0.01085 h 0.0543 l 1.10536,3.109371 h -2.25154 z m -18.427816,0.03152 h 1.25367 c 1.199761,0 1.860351,0.272977 1.860351,1.060917 0,0.77743 -0.66059,1.176672 -1.860351,1.176672 h -1.25367 z m 51.212378,0 h 1.25367 c 1.19976,0 1.86035,0.272977 1.86035,1.060917 0,0.77743 -0.66059,1.176672 -1.86035,1.176672 h -1.25367 z m 34.2806,0 h 1.28106 c 1.28064,0 1.94096,0.283679 1.94096,1.145149 0,0.84047 -0.63336,1.250053 -1.94096,1.250053 h -1.28106 z m -128.508957,0.01034 h 0.687296 c 1.77942,0 2.790527,0.73546 2.790527,2.41639 0,1.69143 -1.011107,2.479435 -2.790527,2.479435 h -0.687296 z" />
</svg>
