<svg xmlns="http://www.w3.org/2000/svg" xmlns:xlink="http://www.w3.org/1999/xlink" xmlns:dc="http://purl.org/dc/elements/1.1/" xmlns:rdf="http://www.w3.org/1999/02/22-rdf-syntax-ns#" width="1536" height="1924" viewBox="0 10 200 200">
  <defs>
    <clipPath id="shield_359219592">
      <path d="m 25,25 v 125 l 75,50 75,-50 V 25 Z"/>
    </clipPath>
    <style>.secondary {
      fill: var(--secondary);
    }
    .tertiary {
      fill: var(--tertiary);
    }
    .pseudostroke {
      fill: var(--stroke);
    }
    .background {
      display: var(--background);
    }</style>
    <radialGradient id="backlight" cx="100%" cy="100%" r="150%">
      <stop stop-color="#fff" stop-opacity=".3" offset="0"/>
      <stop stop-color="#fff" stop-opacity=".15" offset=".25"/>
      <stop stop-color="#000" stop-opacity="0" offset="1"/>
    </radialGradient>
    <g id="gear" stroke-width=".6" transform="translate(60.5 60.5) scale(1.85)" author="Jean-Paul GIBERT" source="https://commons.wikimedia.org/wiki/File:Meuble_h%C3%A9raldique_Roue_dent%C3%A9e_de_12_pi%C3%A8ces.svg" license="https://creativecommons.org/licenses/by/4.0">
      <path d="M18.47.4l.43 3.2-4.43 1.2-1.24-3-4.82 2.78 1.98 2.57-3.24 3.24L4.58 8.4 1.8 13.23l3 1.24-1.2 4.42-3.2-.42v5.56l3.2-.42 1.2 4.42-3 1.24 2.78 4.82 2.57-1.98 3.24 3.24-1.98 2.57 4.82 2.78 1.24-2.99 4.43 1.19-.43 3.2h5.56l-.42-3.2 4.42-1.19 1.24 3 4.82-2.8-1.98-2.56 3.24-3.24 2.57 1.98 2.78-4.82-2.99-1.24 1.19-4.42 3.2.42v-5.56l-3.2.42-1.19-4.42 3-1.24-2.8-4.82-2.56 1.98-3.24-3.24 1.98-2.57-4.82-2.78-1.24 3-4.42-1.2.42-3.2zm2.78 9.84a11.01 11.01 0 0111.01 11.01 11.01 11.01 0 01-11 11.01 11.01 11.01 0 01-11.02-11 11.01 11.01 0 0111.01-11.02z"/>
    </g>
    <style xmlns="http://www.w3.org/1999/xhtml" type="text/css"></style>
  </defs>
  <g clip-path="url(#shield_359219592)">
    <rect class="field" x="0" y="0" width="200" height="200" fill="#522d5b"/>
    <g class="ordinary" i="0" transform="translate(0 25)" fill="#cc7f19" stroke="none" stroke-width="1">
      <g>
        <polygon points="70,0 100,175 130,0"/>
      </g>
    </g>
    <g class="ordinary" i="1" transform="translate(25 25) scale(0.75)" fill="#ffe066" stroke="none" stroke-width="1">
      <g>
        <polygon points="70,0 100,175 130,0"/>
      </g>
    </g>
    <g class="charge" i="0" charge="gear" fill="#ffe066" transform="translate(0 25)" stroke="none" style="--secondary: #ffe066; --tertiary: #ffe066; --stroke: none; --background: block;">
      <use xlink:href="#gear" transform="translate(0.25 50) scale(0.5)"/>
      <use xlink:href="#gear" transform="translate(99.75 50) scale(0.5)"/>
    </g>
  </g>
  <path class="grad" d="m 25,25 v 125 l 75,50 75,-50 V 25 Z" fill="url(#backlight)" stroke="#333333" stroke-width="1" style="pointer-events: none;"/>
</svg>