<svg width="1294" height="1896" viewBox="2.5 0 200 200" xmlns="http://www.w3.org/2000/svg" xmlns:xlink="http://www.w3.org/1999/xlink" xmlns:dc="http://purl.org/dc/elements/1.1/" xmlns:rdf="http://www.w3.org/1999/02/22-rdf-syntax-ns#"><defs><clipPath id="shield_914968770"><path d="M 10,40 h190 l-65,60 65,60 h-190 Z"/></clipPath><style>.secondary {
      fill: var(--secondary);
    }
    .tertiary {
      fill: var(--tertiary);
    }
    .pseudostroke {
      fill: var(--stroke);
    }
    .background {
      display: var(--background);
    }</style><radialGradient id="spotlight" cx="35%" cy="35%" r="100%">
            <stop stop-color="#fff" stop-opacity=".3" offset="0"/>
            <stop stop-color="#fff" stop-opacity=".15" offset=".2"/>
            <stop stop-color="#000" stop-opacity="0" offset=".7"/>
          </radialGradient><g id="gear" stroke-width=".6" transform="translate(60.5 60.5) scale(1.85)" author="Jean-Paul GIBERT" source="https://commons.wikimedia.org/wiki/File:Meuble_h%C3%A9raldique_Roue_dent%C3%A9e_de_12_pi%C3%A8ces.svg" license="https://creativecommons.org/licenses/by/4.0">
    <path d="M18.47.4l.43 3.2-4.43 1.2-1.24-3-4.82 2.78 1.98 2.57-3.24 3.24L4.58 8.4 1.8 13.23l3 1.24-1.2 4.42-3.2-.42v5.56l3.2-.42 1.2 4.42-3 1.24 2.78 4.82 2.57-1.98 3.24 3.24-1.98 2.57 4.82 2.78 1.24-2.99 4.43 1.19-.43 3.2h5.56l-.42-3.2 4.42-1.19 1.24 3 4.82-2.8-1.98-2.56 3.24-3.24 2.57 1.98 2.78-4.82-2.99-1.24 1.19-4.42 3.2.42v-5.56l-3.2.42-1.19-4.42 3-1.24-2.8-4.82-2.56 1.98-3.24-3.24 1.98-2.57-4.82-2.78-1.24 3-4.42-1.2.42-3.2zm2.78 9.84a11.01 11.01 0 0111.01 11.01 11.01 11.01 0 01-11 11.01 11.01 11.01 0 01-11.02-11 11.01 11.01 0 0111.01-11.02z"/>
  </g><style xmlns="http://www.w3.org/1999/xhtml" type="text/css"></style></defs>   <g clip-path="url(#shield_914968770)"><rect class="field" x="0" y="0" width="200" height="200" fill="#fafafa"/><g class="ordinary" i="0" fill="#26c061" stroke="none" stroke-width="1"><path d="M 10,40 h190 l-65,60 65,60 h-190 Z" fill="none" stroke="#26c061" stroke-width="33.3"/></g><g class="ordinary" i="1" transform="translate(-5 0)" fill="#333333" stroke="none" stroke-width="1"><path d="M 10,40 h190 l-65,60 65,60 h-190 Z" fill="none" stroke="#333333" stroke-width="10" transform="translate(15 15) scale(.85)"/></g></g> <path class="grad" d="M 10,40 h190 l-65,60 65,60 h-190 Z" fill="url(#spotlight)" stroke="#333333" stroke-width="1" style="pointer-events: none;"/> <g class="charge" i="0" charge="gear" fill="#333333" transform="translate(-25 0)" stroke="none" style="--secondary: #333333; --tertiary: #333333; --stroke: none; --background: block;"><use xlink:href="#gear" xmlns:xlink="http://www.w3.org/1999/xlink" transform="translate(2 2) scale(0.98)"/></g>  </svg>