<svg width="600" height="1842" viewBox="0 0 200 200" xmlns="http://www.w3.org/2000/svg" xmlns:xlink="http://www.w3.org/1999/xlink" xmlns:dc="http://purl.org/dc/elements/1.1/" xmlns:rdf="http://www.w3.org/1999/02/22-rdf-syntax-ns#"><defs><clipPath id="shield_59666942"><path d="M 25,100 100,200 175,100 100,0 Z"/></clipPath><clipPath id="division_59666942"><polygon points="0,200 100,100 200,200"/></clipPath><radialGradient id="spotlight" cx="35%" cy="35%" r="100%">
            <stop stop-color="#fff" stop-opacity=".3" offset="0"/>
            <stop stop-color="#fff" stop-opacity=".15" offset=".2"/>
            <stop stop-color="#000" stop-opacity="0" offset=".7"/>
          </radialGradient><pattern id="barry-purpure-murrey" width="0.125" height="0.5" viewBox="0 0 25 100"><rect width="25" height="100" fill="#85185b"/><rect x="0" y="25" width="25" height="25" fill="#522d5b"/><rect x="0" y="75" width="25" height="25" fill="#522d5b"/></pattern></defs> <g clip-path="url(#shield_59666942)"><rect class="field" x="0" y="0" width="200" height="200" fill="url(#barry-purpure-murrey)"/><g class="division" clip-path="url(#division_59666942)"><rect x="0" y="0" width="200" height="200" fill="#d7374a"/></g><g class="ordinary" i="0" fill="#333333" stroke="none" stroke-width="1"><path d="M15,0 100,200 60,0Z M80,0 100,200 120,0Z M140,0 100,200 185,0Z"/></g></g> <path class="grad" d="M 25,100 100,200 175,100 100,0 Z" fill="url(#spotlight)" stroke="#333333" stroke-width="1" style="pointer-events: none;"/></svg>