<svg xmlns="http://www.w3.org/2000/svg" xmlns:xlink="http://www.w3.org/1999/xlink" xmlns:dc="http://purl.org/dc/elements/1.1/" xmlns:rdf="http://www.w3.org/1999/02/22-rdf-syntax-ns#" width="1536" height="2014" viewBox="2.5 0 200 200">
  <defs>
    <clipPath id="shield_898133059">
      <path d="M 10,40 h190 l-65,60 65,60 h-190 Z"/>
    </clipPath>
    <clipPath id="division_898133059">
      <path d="M 9.4,85 C 6.5,88.1 4.1,92.9 3,98.8 1.9,104.6 2.3,110.4 3.8,115 2.4,113.5 0,106.6 0,109.3 v 5.7 h 200 v -5.7 c -1.1,-2.4 -2,-5.1 -2.6,-8 -1.1,-5.9 -0.7,-11.6 0.8,-16.2 -2.9,3.1 -5.3,7.9 -6.4,13.8 -1.1,5.9 -0.7,11.6 0.8,16.2 -2.9,-3.1 -5.3,-7.9 -6.4,-13.8 -1.1,-5.9 -0.7,-11.6 0.8,-16.2 -2.9,3.1 -5.3,7.9 -6.4,13.8 -1.1,5.9 -0.7,11.6 0.8,16.2 -2.9,-3.1 -5.3,-7.9 -6.4,-13.8 -1.1,-5.9 -0.7,-11.6 0.8,-16.2 -2.9,3.1 -5.3,7.9 -6.4,13.8 -1.1,5.9 -0.7,11.6 0.8,16.2 -2.9,-3.1 -5.3,-7.9 -6.4,-13.8 -1.1,-5.9 -0.7,-11.6 0.8,-16.2 -2.9,3.1 -5.3,7.9 -6.4,13.8 -1.1,5.9 -0.7,11.6 0.8,16.2 -2.9,-3.1 -5.3,-7.9 -6.4,-13.8 -1.1,-5.9 -0.7,-11.6 0.8,-16.2 -2.9,3.1 -5.3,7.9 -6.4,13.8 -1.1,5.9 -0.7,11.6 0.8,16.2 -2.9,-3.1 -5.3,-7.9 -6.4,-13.8 -1.1,-5.9 -0.7,-11.6 0.8,-16.2 -2.9,3.1 -5.3,7.9 -6.4,13.8 -1.1,5.9 -0.7,11.6 0.8,16.2 -2.9,-3.1 -5.3,-7.9 -6.4,-13.8 -1.1,-5.9 -0.7,-11.6 0.8,-16.2 -2.9,3.1 -5.3,7.9 -6.4,13.8 -1.1,5.9 -0.7,11.6 0.8,16.2 -2.9,-3.1 -5.3,-7.9 -6.4,-13.8 -1.1,-5.9 -0.7,-11.6 0.8,-16.2 -2.9,3.1 -5.3,7.9 -6.4,13.8 -1.1,5.9 -0.7,11.6 0.8,16.2 -2.9,-3.1 -5.3,-7.9 -6.4,-13.8 -1.1,-5.9 -0.7,-11.6 0.8,-16.2 -2.9,3.1 -5.3,7.9 -6.4,13.8 -1.1,5.9 -0.7,11.6 0.8,16.2 -1.4,-1.5 -2.8,-3.9 -3.8,-6.1 -1.1,-2.4 -2.3,-6.1 -2.6,-7.7 -0.2,-5.9 0.2,-11.7 1.7,-16.3 -3,3.1 -5.3,7.9 -6.4,13.8 -1.1,5.8 -0.7,11.6 0.8,16.2 -2.9,-3.1 -5.3,-7.9 -6.4,-13.8 -1,-5.8 -0.7,-11.6 0.9,-16.2 -3,3.1 -5.3,7.9 -6.4,13.8 -1.1,5.8 -0.7,11.6 0.8,16.2 -2.9,-3.1 -5.3,-7.9 -6.4,-13.8 -1.1,-5.8 -0.7,-11.6 0.9,-16.2 -3,3.1 -5.3,7.9 -6.4,13.8 -1.1,5.8 -0.7,11.6 0.8,16.2 -2.9,-3.1 -5.3,-7.9 -6.4,-13.8 C 63,95.4 63.4,89.6 64.9,85 c -2.9,3.1 -5.3,7.9 -6.3,13.8 -1.1,5.8 -0.7,11.6 0.8,16.2 -3,-3.1 -5.3,-7.9 -6.4,-13.8 -1.1,-5.8 -0.7,-11.6 0.8,-16.2 -2.9,3.1 -5.3,7.9 -6.4,13.8 -1,5.8 -0.6,11.6 0.9,16.2 -3,-3.1 -5.3,-7.9 -6.4,-13.8 -1.1,-5.8 -0.7,-11.6 0.8,-16.2 -2.9,3.1 -5.3,7.9 -6.4,13.8 -1,5.8 -0.7,11.6 0.9,16.2 -3,-3.1 -5.3,-7.9 -6.4,-13.8 -1.1,-5.8 -0.7,-11.6 0.8,-16.2 -2.9,3.1 -5.3,7.9 -6.4,13.8 -1.1,5.8 -0.7,11.6 0.9,16.2 -3,-3.1 -5.3,-7.9 -6.4,-13.8 C 18.6,95.4 19,89.6 20.5,85 17.6,88.1 15.2,92.9 14.1,98.8 13,104.6 13.4,110.4 14.9,115 12,111.9 9.6,107.1 8.6,101.2 7.5,95.4 7.9,89.6 9.4,85 Z"/>
      <rect x="0" y="115" width="200" height="85" shape-rendering="crispedges"/>
    </clipPath>
    <style>g.secondary,
    path.secondary {
      fill: var(--secondary);
    }
    g.tertiary,
    path.tertiary {
      fill: var(--tertiary);
    }</style>
    <radialGradient id="spotlight" cx="35%" cy="35%" r="100%">
      <stop stop-color="#fff" stop-opacity=".3" offset="0"/>
      <stop stop-color="#fff" stop-opacity=".15" offset=".2"/>
      <stop stop-color="#000" stop-opacity="0" offset=".7"/>
    </radialGradient>
    <g id="inescutcheonVesicaPiscis" author="Azgaar" license="https://creativecommons.org/publicdomain/zero/1.0">
      <path transform="translate(67 67) scale(.33)" d="M 100,0 C 63.9,20.4 41,58.5 41,100 c 0,41.5 22.9,79.6 59,100 36.1,-20.4 59,-58.5 59,-100 C 159,58.5 136.1,20.4 100,0 Z"/>
    </g>
  </defs>
  <g clip-path="url(#shield_898133059)">
    <rect class="field" x="0" y="0" width="200" height="200" fill="#fafafa"/>
    <g class="division" clip-path="url(#division_898133059)">
      <rect x="0" y="0" width="200" height="200" fill="#85185b"/>
    </g>
    <g class="ordinary" i="0">
      <path d="M 10,40 h190 l-65,60 65,60 h-190 Z" fill="none" stroke="#333333" stroke-width="5%" transform="translate(15 15) scale(.85)"/>
    </g>
    <g class="charge" i="0" charge="inescutcheonVesicaPiscis" fill="#377cd7" transform="translate(-12 0) rotate(-90 100 100)" stroke="none" style="--secondary: #377cd7; --tertiary: #377cd7;">
      <use xlink:href="#inescutcheonVesicaPiscis" transform="translate(-9 -9) scale(1.09)"/>
    </g>
  </g>
  <path class="grad" d="M 10,40 h190 l-65,60 65,60 h-190 Z" fill="url(#spotlight)" stroke="#333333" stroke-width="1" style="pointer-events: none;"/>
</svg>