<svg xmlns="http://www.w3.org/2000/svg" xmlns:xlink="http://www.w3.org/1999/xlink" xmlns:dc="http://purl.org/dc/elements/1.1/" xmlns:rdf="http://www.w3.org/1999/02/22-rdf-syntax-ns#" width="1536" height="2014" viewBox="2.5 0 200 200">
  <defs>
    <clipPath id="shield_899512899">
      <path d="M 10,40 h190 l-65,60 65,60 h-190 Z"/>
    </clipPath>
    <style>g.secondary,
    path.secondary {
      fill: var(--secondary);
    }
    g.tertiary,
    path.tertiary {
      fill: var(--tertiary);
    }</style>
    <radialGradient id="spotlight" cx="35%" cy="35%" r="100%">
      <stop stop-color="#fff" stop-opacity=".3" offset="0"/>
      <stop stop-color="#fff" stop-opacity=".15" offset=".2"/>
      <stop stop-color="#000" stop-opacity="0" offset=".7"/>
    </radialGradient>
    <g id="inescutcheonHeater" author="Azgaar" license="https://creativecommons.org/publicdomain/zero/1.0">
      <path transform="translate(67 67) scale(.33)" d="m25,25 h150 v50 a150,150,0,0,1,-75,125 a150,150,0,0,1,-75,-125 z"/>
    </g>
  </defs>
  <g clip-path="url(#shield_899512899)">
    <rect class="field" x="0" y="0" width="200" height="200" fill="#fafafa"/>
    <g class="ordinary" i="0">
      <path d="M 10,40 h190 l-65,60 65,60 h-190 Z" fill="none" stroke="#333333" stroke-width="5%" transform="translate(15 15) scale(.85)"/>
    </g>
    <g class="charge" i="0" charge="inescutcheonHeater" fill="#377cd7" transform="translate(-12 0) rotate(-90 100 100)" stroke="none" style="--secondary: #377cd7; --tertiary: #377cd7;">
      <use xlink:href="#inescutcheonHeater" transform="translate(-9 -9) scale(1.09)"/>
    </g>
  </g>
  <path class="grad" d="M 10,40 h190 l-65,60 65,60 h-190 Z" fill="url(#spotlight)" stroke="#333333" stroke-width="1" style="pointer-events: none;"/>
</svg>