<svg xmlns="http://www.w3.org/2000/svg" xmlns:xlink="http://www.w3.org/1999/xlink" xmlns:dc="http://purl.org/dc/elements/1.1/" xmlns:rdf="http://www.w3.org/1999/02/22-rdf-syntax-ns#" width="1536" height="2014" viewBox="2.5 0 200 200">
  <defs>
    <clipPath id="shield_605199249">
      <path d="M 10,40 h190 l-65,60 65,60 h-190 Z"/>
    </clipPath>
    <style>g.secondary,
    path.secondary {
      fill: var(--secondary);
    }
    g.tertiary,
    path.tertiary {
      fill: var(--tertiary);
    }</style>
    <radialGradient id="spotlight" cx="35%" cy="35%" r="100%">
      <stop stop-color="#fff" stop-opacity=".3" offset="0"/>
      <stop stop-color="#fff" stop-opacity=".15" offset=".2"/>
      <stop stop-color="#000" stop-opacity="0" offset=".7"/>
    </radialGradient>
    <g id="compassRose" stroke-width=".5" author="Azgaar" license="https://creativecommons.org/publicdomain/zero/1.0">
      <path d="M100 60l6 28 14-8-8 15 28 5-28 6 8 14-14-8-6 28-6-28-14 8 8-14-28-6 28-6-8-14 14 8z"/>
      <path fill="#000" stroke="#000" fill-opacity=".5" stroke-opacity=".2" d="M100 61v39l7-6 5 1c2.7-5 5.3-10 8-15-4.3 4.3-8.7 9.7-13 14-2.3-10.7-4.7-22.3-7-33zm0 39l7 7c10.7-2.3 21.3-4.7 32-7zm0 0l-7 7c2.3 10.7 4.7 21.3 7 32zm0 0l-7-7-32 7zm-7-7l1-5-14-8zm0 14c-1.7-.3-3.3-.7-5-1-2.7 4.7-5.3 9.3-8 14l13-13zm14 0c-.3 1.7-.7 3.3-1 5 4.7 2.7 9.3 5.3 14 8z"/>
    </g>
  </defs>
  <g clip-path="url(#shield_605199249)">
    <rect class="field" x="0" y="0" width="200" height="200" fill="#fafafa"/>
    <g class="ordinary" i="0">
      <path d="M 10,40 h190 l-65,60 65,60 h-190 Z" fill="none" stroke="#333333" stroke-width="16.7%"/>
    </g>
    <g class="charge" i="0" charge="compassRose" fill="#b63a3a" transform="translate(-10 0) rotate(90 100 100)" stroke="none" style="--secondary: #b63a3a; --tertiary: #b63a3a;">
      <use xlink:href="#compassRose" transform="translate(-9 -9) scale(1.09)"/>
    </g>
  </g>
  <path class="grad" d="M 10,40 h190 l-65,60 65,60 h-190 Z" fill="url(#spotlight)" stroke="#333333" stroke-width="1" style="pointer-events: none;"/>
</svg>