<svg width="1294" height="1896" viewBox="0 0 200 200" xmlns="http://www.w3.org/2000/svg" xmlns:xlink="http://www.w3.org/1999/xlink" xmlns:dc="http://purl.org/dc/elements/1.1/" xmlns:rdf="http://www.w3.org/1999/02/22-rdf-syntax-ns#"><defs><clipPath id="shield_824684421"><path d="M 100,12 176.2,56 176.2,144 100,188 23.8,144 23.8,56 Z"/></clipPath><style>.secondary {
      fill: var(--secondary);
    }
    .tertiary {
      fill: var(--tertiary);
    }
    .pseudostroke {
      fill: var(--stroke);
    }
    .background {
      display: var(--background);
    }</style><linearGradient id="luster" x1="0%" y1="100%" x2="95%" y2="10%">
            <stop stop-color="#000" stop-opacity=".3" offset="0"/>
            <stop stop-color="#ccc" stop-opacity="0" offset=".8"/>
            <stop stop-color="#fff" stop-opacity=".2" offset="1"/>
          </linearGradient><style xmlns="http://www.w3.org/1999/xhtml" type="text/css"></style></defs>   <g clip-path="url(#shield_824684421)"><rect class="field" x="0" y="0" width="200" height="200" fill="#522d5b"/><g class="ordinary" i="0" fill="#fafafa" stroke="none" stroke-width="1"><g><path d="m 0,115 v -15 h 85 l 15,15 15,-15 h 85 v 15" transform="translate(0 -10) rotate(45 110 100) scale(1.1 1)"/><path d="m 0,115 v -15 h 85 l 15,15 15,-15 h 85 v 15" transform="translate(-20 10) rotate(225 110 100) scale(1.1 1)"/><path d="m 0,115 v -15 h 85 l 15,15 15,-15 h 85 v 15" transform="translate(-20 -10) rotate(-45 110 100) scale(1.1 1)"/><path d="m 0,115 v -15 h 85 l 15,15 15,-15 h 85 v 15" transform="translate(0 10) rotate(-225 110 100) scale(1.1 1)"/></g></g><g class="ordinary" i="1" fill="#d7374a" stroke="none" stroke-width="1"><g><path d="m 0,115 v -15 h 85 l 15,-15 15,15 h 85 v 15" transform="translate(0,50)"/><rect x="0" y="164" width="200" height="36" stroke="none"/></g></g></g> <path class="grad" d="M 100,12 176.2,56 176.2,144 100,188 23.8,144 23.8,56 Z" fill="url(#luster)" stroke="#333333" stroke-width="1" style="pointer-events: none;"/>   </svg>